<?xml version="1.0" encoding="UTF-8" standalone="no"?>
<svg
   xmlns:dc="http://purl.org/dc/elements/1.1/"
   xmlns:cc="http://creativecommons.org/ns#"
   xmlns:rdf="http://www.w3.org/1999/02/22-rdf-syntax-ns#"
   xmlns:svg="http://www.w3.org/2000/svg"
   xmlns="http://www.w3.org/2000/svg"
   xmlns:sodipodi="http://sodipodi.sourceforge.net/DTD/sodipodi-0.dtd"
   xmlns:inkscape="http://www.inkscape.org/namespaces/inkscape"
   width="210mm"
   height="210mm"
   viewBox="0 0 210 210"
   version="1.1"
   id="svg8"
   inkscape:version="1.0.2 (e86c870879, 2021-01-15)"
   sodipodi:docname="logo.svg">
  <defs
     id="defs2" />
  <sodipodi:namedview
     id="base"
     pagecolor="#ffffff"
     bordercolor="#666666"
     borderopacity="1.0"
     inkscape:pageopacity="0.0"
     inkscape:pageshadow="2"
     inkscape:zoom="3.959798"
     inkscape:cx="399.46502"
     inkscape:cy="199.26788"
     inkscape:document-units="mm"
     inkscape:current-layer="layer1"
     inkscape:document-rotation="0"
     showgrid="false"
     inkscape:window-width="3440"
     inkscape:window-height="1380"
     inkscape:window-x="0"
     inkscape:window-y="32"
     inkscape:window-maximized="1" />
  <metadata
     id="metadata5">
    <rdf:RDF>
      <cc:Work
         rdf:about="">
        <dc:format>image/svg+xml</dc:format>
        <dc:type
           rdf:resource="http://purl.org/dc/dcmitype/StillImage" />
        <dc:title />
      </cc:Work>
    </rdf:RDF>
  </metadata>
  <g
     inkscape:label="Layer 1"
     inkscape:groupmode="layer"
     id="layer1">
    <path
       style="fill:none;stroke:#000000;stroke-width:1.465;stroke-linecap:round;stroke-linejoin:bevel;stroke-miterlimit:4;stroke-dasharray:none;stroke-opacity:1;paint-order:normal"
       d="M 134.19768,25.468807 H 61.952602 c 0,0 1.296353,13.711513 10.188471,25.350678"
       id="path833"
       sodipodi:nodetypes="ccc" />
    <path
       id="path853"
       style="fill:none;stroke:#000000;stroke-width:1.03297;stroke-linecap:butt;stroke-linejoin:bevel;stroke-miterlimit:4;stroke-dasharray:none;stroke-opacity:1"
       d="m 81.415513,25.252794 a 18.905596,26.398086 0 0 0 -0.0321,1.528464 18.905596,26.398086 0 0 0 18.905747,26.398305 18.905596,26.398086 0 0 0 18.90523,-26.398305 18.905596,26.398086 0 0 0 -0.0315,-1.528464 z" />
    <path
       id="path875"
       style="fill:#000000;fill-opacity:1;stroke:#000000;stroke-width:1.21912;stroke-linecap:butt;stroke-linejoin:bevel;stroke-miterlimit:4;stroke-dasharray:none;stroke-opacity:1"
       d="m 90.409937,25.345866 a 10.029254,12.465722 0 0 0 -0.150004,2.145404 10.029254,12.465722 0 0 0 10.029227,12.465694 10.029254,12.465722 0 0 0 10.02923,-12.465694 10.029254,12.465722 0 0 0 -0.15,-2.145404 z" />
    <path
       style="fill:none;stroke:#000000;stroke-width:0.865;stroke-linecap:round;stroke-linejoin:miter;stroke-miterlimit:4;stroke-dasharray:none;stroke-opacity:1"
       d="m 127.11639,53.063164 c 0,0 -24.64868,9.905553 -51.730905,0.258818"
       id="path935"
       sodipodi:nodetypes="cc" />
    <path
       style="fill:none;stroke:#000000;stroke-width:0.865;stroke-linecap:round;stroke-linejoin:miter;stroke-miterlimit:4;stroke-dasharray:none;stroke-opacity:1"
       d="m 128.05466,55.725505 c 0,0 -10.39052,11.872701 -29.313718,16.50011"
       id="path935-7"
       sodipodi:nodetypes="cc" />
    <path
       style="fill:none;stroke:#000000;stroke-width:0.865;stroke-linecap:round;stroke-linejoin:miter;stroke-miterlimit:4;stroke-dasharray:none;stroke-opacity:1"
       d="m 127.49864,54.346521 c 0,0 -17.11472,9.931383 -40.771513,11.610709"
       id="path935-7-5"
       sodipodi:nodetypes="cc" />
    <path
       style="fill:none;stroke:#000000;stroke-width:1.065;stroke-linecap:round;stroke-linejoin:miter;stroke-miterlimit:4;stroke-dasharray:none;stroke-opacity:1"
       d="m 138.84277,22.876992 c 0,0 -8.74155,-12.337431 -33.16874,-12.978564"
       id="path935-7-5-3"
       sodipodi:nodetypes="cc" />
  </g>
</svg>
